<?xml version="1.0" encoding="UTF-8"?>
<!DOCTYPE svg PUBLIC "-//W3C//DTD SVG 1.1//EN" "http://www.w3.org/Graphics/SVG/1.1/DTD/svg11.dtd">
<!-- Creator: CorelDRAW X6 -->
<svg xmlns="http://www.w3.org/2000/svg" xml:space="preserve" width="8.26389in" height="11.6806in" version="1.1" style="shape-rendering:geometricPrecision; text-rendering:geometricPrecision; image-rendering:optimizeQuality; fill-rule:evenodd; clip-rule:evenodd"
viewBox="0 0 8264 11681"
 xmlns:xlink="http://www.w3.org/1999/xlink">
 <defs>
  <style type="text/css">
   <![CDATA[
    .fil0 {fill:#4B4B4D;fill-rule:nonzero}
   ]]>
  </style>
 </defs>
 <g id="Layer_x0020_1">
  <metadata id="CorelCorpID_0Corel-Layer"/>
  <path class="fil0" d="M3797 6861c-128,-77 -267,-190 -426,-340 -267,-252 -326,-771 -326,-771 0,0 15,193 -148,132 -208,-135 -88,-428 -88,-428 0,0 474,-489 696,-993 222,-504 786,-504 786,-504l534 460 311 869c154,-174 341,-54 237,258 -104,311 -252,400 -252,400 -74,222 -237,489 -430,756 -33,45 -67,84 -102,117 38,163 141,297 339,400 0,0 0,0 0,0 265,-24 572,-102 667,-324 0,0 -517,-15 -377,-326 140,-311 644,-712 377,-1631 -267,-919 -59,-1675 -1097,-1601 0,0 -400,-282 -1127,0 -727,282 -845,992 -845,1460 0,468 15,898 -104,1002l148 0c0,0 208,593 460,771 133,133 90,445 -222,460 0,0 107,190 296,284 196,-57 381,-107 475,-136 136,-43 194,-192 219,-313z"/>
  <path class="fil0" d="M4231 8404c-944,12 -1265,-645 -1372,-1020 -96,30 -185,61 -259,91 109,250 261,688 222,1137l2610 0c48,-280 157,-802 341,-1122 -128,-46 -241,-77 -346,-104 -17,-4 -34,-9 -51,-13 0,0 0,0 0,0 -67,367 -304,1021 -1146,1031z"/>
 </g>
</svg>
