<?xml version="1.0" encoding="UTF-8"?>
<!DOCTYPE svg PUBLIC "-//W3C//DTD SVG 1.1//EN" "http://www.w3.org/Graphics/SVG/1.1/DTD/svg11.dtd">
<!-- Creator: CorelDRAW X6 -->
<svg xmlns="http://www.w3.org/2000/svg" xml:space="preserve" width="8.26389in" height="11.6806in" version="1.1" style="shape-rendering:geometricPrecision; text-rendering:geometricPrecision; image-rendering:optimizeQuality; fill-rule:evenodd; clip-rule:evenodd"
viewBox="0 0 8264 11681"
 xmlns:xlink="http://www.w3.org/1999/xlink">
 <defs>
  <style type="text/css">
   <![CDATA[
    .fil0 {fill:#4B4B4D;fill-rule:nonzero}
   ]]>
  </style>
 </defs>
 <g id="Layer_x0020_1">
  <metadata id="CorelCorpID_0Corel-Layer"/>
  <path class="fil0" d="M3556 7043c3,-1 6,-2 8,-4 -3,1 -6,2 -8,4z"/>
  <path class="fil0" d="M4657 7010c3,2 7,4 10,6 -4,-2 -7,-4 -10,-6z"/>
  <path class="fil0" d="M4716 7039c4,2 8,4 13,5 -4,-2 -9,-4 -13,-5z"/>
  <path class="fil0" d="M6320 8435c0,0 -89,-589 -256,-867 -167,-278 -245,-222 -442,-267 -160,-36 -624,-152 -860,-243 0,0 0,0 0,0 -205,561 -610,976 -610,976 0,0 0,0 -334,-450 -177,-238 -256,-415 -292,-529 -233,91 -705,209 -867,245 -198,44 -276,-11 -442,267 -167,278 -256,867 -256,867l2180 56 2180 -56z"/>
  <path class="fil0" d="M4738 7049c5,2 9,4 14,6 -5,-2 -9,-4 -14,-6z"/>
  <path class="fil0" d="M4672 7019c4,2 9,4 14,7 -5,-2 -9,-5 -14,-7z"/>
  <path class="fil0" d="M4641 7000c3,3 7,5 12,8 -4,-3 -8,-5 -12,-8z"/>
  <path class="fil0" d="M3628 7008c4,-3 8,-5 12,-8 -3,2 -7,5 -12,8z"/>
  <path class="fil0" d="M4689 7027c6,3 12,6 18,8 -6,-3 -13,-6 -18,-8z"/>
  <path class="fil0" d="M3575 7035c3,-2 7,-3 10,-5 -3,2 -7,3 -10,5z"/>
  <path class="fil0" d="M3593 7026c5,-3 11,-5 15,-8 -5,3 -10,5 -15,8z"/>
  <path class="fil0" d="M3614 7016c4,-2 7,-4 10,-6 -3,2 -7,4 -10,6z"/>
  <path class="fil0" d="M2750 5143c211,-33 133,345 133,345 78,-167 111,-367 78,-701 -33,-334 189,-411 189,-411 256,434 945,589 945,589 -111,-100 -145,-278 -145,-278 256,278 434,256 434,256 -145,-145 -133,-256 -133,-256 500,489 756,100 745,334 0,345 67,467 67,467 111,-222 -11,-311 145,-389 156,-78 145,167 145,167 0,0 13,-33 27,-96 26,-114 57,-327 28,-626 -44,-467 -278,-790 -578,-990 -300,-200 -489,-222 -489,-222 234,-67 156,-156 156,-156 -156,156 -734,0 -1346,256 -612,256 -556,1123 -545,1401 9,229 -42,314 57,319 21,1 50,-2 87,-8z"/>
 </g>
</svg>
